C:\GBW_MyPrograms\KinderuniversiteitApp\Resultaten\Ellis_v10102025\Volwassenen\Volwassenen_v3.mot
version=1
nRows=8
nColumns=29
inDegrees=yes
endheader
                time	         pelvis_tilt	           pelvis_tx	           pelvis_ty	       hip_flexion_l	       hip_flexion_r	        knee_angle_l	        knee_angle_r	       ankle_angle_l	       ankle_angle_r	    lumbar_extension	hamstrings_r/activation	bifemsh_r/activation	glut_max_r/activation	iliopsoas_r/activation	rect_fem_r/activation	  vasti_r/activation	gastroc_r/activation	 soleus_r/activation	tib_ant_r/activation	hamstrings_l/activation	bifemsh_l/activation	glut_max_l/activation	iliopsoas_l/activation	rect_fem_l/activation	  vasti_l/activation	gastroc_l/activation	 soleus_l/activation	tib_ant_l/activation	
          1.99961490	         -4.41387691	          2.36908803	          1.01883611	        -11.03342853	         26.94020490	        -16.25057973	        -23.74579515	         -0.31957566	          7.30440611	         -3.08847952	          0.36618806	          0.07061048	          0.16696297	          0.05937603	          0.11915270	          0.09135531	          0.05733693	          0.07962520	          0.31055859	          0.07618035	          0.22040270	          0.08543959	          0.70453971	          0.36025155	          0.11502165	          0.17203598	          0.20264658	          0.05209948	
          2.01961105	         -4.63247180	          2.40031103	          1.01671607	        -10.93361932	         25.58172351	        -18.88464138	        -23.72285014	         -2.34518488	          7.58753441	         -2.07370909	          0.28912893	          0.09888638	          0.18489862	          0.06027734	          0.09597223	          0.20539849	          0.06208961	          0.10640849	          0.28896127	          0.09337683	          0.18535029	          0.13840381	          0.56249203	          0.27628362	          0.09338709	          0.13059161	          0.15291946	          0.17196527	
          2.03960720	         -4.84642562	          2.43112335	          1.01413816	        -10.22411956	         24.33437875	        -22.51729423	        -24.54499949	         -3.89376961	          8.82966797	         -1.10439860	          0.21782301	          0.09498507	          0.24826884	          0.05547192	          0.09963164	          0.33203305	          0.06025618	          0.16949039	          0.22460228	          0.09583660	          0.16250188	          0.16512434	          0.51978179	          0.24827718	          0.07640658	          0.10444910	          0.11716280	          0.28969535	
          2.05960335	         -5.03448293	          2.46028786	          1.01259487	         -9.11484031	         23.31775741	        -25.93380953	        -25.65112203	         -3.33860561	         10.30132669	         -0.34640223	          0.16626718	          0.10351854	          0.23585950	          0.05941995	          0.09426112	          0.41945556	          0.06675262	          0.24441480	          0.17850540	          0.13275830	          0.19156669	          0.12731941	          0.42855055	          0.19929124	          0.05955080	          0.08921063	          0.08789543	          0.28281072	
          2.07959949	         -5.19370512	          2.48774555	          1.01304031	         -7.51973390	         22.06879072	        -29.12635297	        -26.12312685	         -2.26485050	         11.17392661	          0.19513315	          0.13075334	          0.10674684	          0.19855561	          0.05750719	          0.09098827	          0.40385095	          0.09286363	          0.29779025	          0.16392368	          0.16021246	          0.20380062	          0.10570239	          0.33372754	          0.20189517	          0.05405641	          0.09036734	          0.06772683	          0.25618012	
          2.09959564	         -5.32169828	          2.51374872	          1.01540068	         -5.52175413	         20.47281204	        -32.13879233	        -25.79298428	         -1.20692260	         11.47360052	          0.55019035	          0.11811212	          0.10192713	          0.16393175	          0.05632766	          0.09629155	          0.32446513	          0.12763688	          0.32553082	          0.15716197	          0.18829680	          0.22131953	          0.08708378	          0.25408403	          0.24525628	          0.05409053	          0.09419487	          0.05733306	          0.23930296	
          2.11959179	         -5.40373597	          2.53854600	          1.01909546	         -3.31316857	         18.64348023	        -34.73008902	        -24.92569268	         -0.24587160	         11.28610277	          0.72907218	          0.11370257	          0.09789304	          0.13825534	          0.05608266	          0.11182226	          0.24889892	          0.16735286	          0.33183017	          0.13062704	          0.20604547	          0.26197283	          0.07264407	          0.19464829	          0.26918253	          0.05407487	          0.09552487	          0.05635771	          0.24135056	
          2.13958794	         -5.42769155	          2.56228878	          1.02347341	         -0.98620963	         16.68730021	        -36.87272113	        -23.76195368	          0.67024244	         10.72436782	          0.73243250	          0.11109912	          0.10341957	          0.11929477	          0.05743588	          0.12605843	          0.19066439	          0.20527139	          0.32261556	          0.10358257	          0.20155093	          0.31070681	          0.06238502	          0.15298380	          0.28060781	          0.05489818	          0.09683030	          0.05714209	          0.24733346	
